<?xml version="1.0" encoding="UTF-8" standalone="no"?>
<!-- Created with Inkscape (http://www.inkscape.org/) -->
<svg xmlns:svg="http://www.w3.org/2000/svg" xmlns="http://www.w3.org/2000/svg" version="1.0" width="101.85" height="43.009998" id="svg3178">
  <defs id="defs3180">
    <clipPath id="clipPath311">
      <path d="M 1094.621,10.9037 L 1168.9024,10.9037 L 1168.9024,39.7157 L 1094.621,39.7157 L 1094.621,10.9037 z" id="path313"/>
    </clipPath>
    <clipPath id="clipPath303">
      <path d="M 1090.349,7.4868 L 1172.667,7.4868 L 1172.667,46.4648 L 1090.349,46.4648 L 1090.349,7.4868 z" id="path305"/>
    </clipPath>
  </defs>
  <g transform="translate(186.42585,-245.78325)" id="layer1">
    <g transform="matrix(1.25,0,0,-1.25,-1550.2029,298.92537)" id="g299">
      <g clip-path="url(#clipPath303)" id="g301">
        <g id="g307">
          <g clip-path="url(#clipPath311)" id="g309">
            <path d="M 1131.5498,39.0533 C 1142.2034,39.0533 1147.1345,29.1725 1147.1345,23.8916 C 1147.1345,33.3677 1139.241,39.7157 1131.5498,39.7157 C 1123.8585,39.7157 1115.965,33.3677 1115.965,23.8916 C 1115.965,29.1725 1120.8961,39.0533 1131.5498,39.0533" id="path315" style="fill:#263f6e;fill-opacity:1;fill-rule:nonzero;stroke:none"/>
            <path d="M 1115.8729,21.4997 L 1118.0258,21.4997 L 1115.8729,22.9349 L 1113.7202,21.4997" id="path317" style="fill:#ed1c24;fill-opacity:1;fill-rule:nonzero;stroke:none"/>
            <path d="M 1147.1162,22.9349 L 1149.2689,22.9349 L 1147.1162,21.4997 L 1144.9634,22.9349" id="path319" style="fill:#ed1c24;fill-opacity:1;fill-rule:nonzero;stroke:none"/>
            <path d="M 1122.3309,28.3378 C 1122.3309,29.5893 1122.2737,30.8553 1122.2163,32.0923 C 1123.0756,32.0485 1123.9205,32.0194 1124.7798,32.0194 C 1125.639,32.0194 1126.484,32.0485 1127.3291,32.0923 C 1127.3004,31.9467 1127.286,31.8012 1127.286,31.6557 C 1127.286,31.5101 1127.3004,31.3647 1127.3291,31.2191 C 1126.1261,31.3064 1125.4243,31.4083 1123.5625,31.4083 C 1123.5482,30.7826 1123.5052,30.2733 1123.5052,29.5602 C 1123.5052,28.8036 1123.5197,28.0032 1123.5197,27.6394 C 1125.2095,27.6394 1126.1547,27.712 1126.9996,27.785 C 1126.9709,27.6394 1126.9567,27.4793 1126.9567,27.3339 C 1126.9567,27.1883 1126.9709,27.0428 1126.9996,26.8973 C 1126.0115,26.9991 1124.2069,27.0282 1123.5197,27.0282 C 1123.5052,26.679 1123.5052,26.3151 1123.5052,24.9183 C 1123.5052,23.8123 1123.5197,23.0992 1123.5338,22.7354 C 1124.8085,22.7354 1126.4984,22.75 1127.4006,22.9245 C 1127.3721,22.7937 1127.3577,22.6045 1127.3577,22.4734 C 1127.3577,22.3426 1127.3721,22.1825 1127.4006,22.0515 C 1126.5557,22.0952 1125.6964,22.1243 1124.8228,22.1243 C 1123.9492,22.1243 1123.09,22.0952 1122.2163,22.0515 C 1122.2737,23.3176 1122.3309,24.5836 1122.3309,25.835" id="path321" style="fill:#263f6e;fill-opacity:1;fill-rule:nonzero;stroke:none"/>
            <path d="M 1129.6573,28.3234 C 1129.6573,29.5748 1129.6,30.8408 1129.5427,32.0923 C 1130.4021,32.0485 1131.2469,32.0194 1132.1063,32.0194 C 1132.9656,32.0194 1133.8104,32.0485 1134.8416,32.0923 C 1134.813,31.9467 1134.7986,31.8012 1134.7986,31.6557 C 1134.7986,31.5101 1134.813,31.3647 1134.8417,31.2191 C 1133.8104,31.321 1131.7769,31.4083 1130.8459,31.4083 C 1130.8317,30.7244 1130.8173,30.1132 1130.8173,29.502 C 1130.8173,28.8327 1130.8317,28.2796 1130.8317,27.6685 C 1132.0632,27.6685 1133.3379,27.6977 1134.5265,27.814 C 1134.4979,27.6685 1134.4692,27.523 1134.4692,27.3774 C 1134.4692,27.2319 1134.4979,27.0864 1134.5265,26.9409 C 1133.567,27.0428 1132.0632,27.0573 1130.8317,27.0573 L 1130.8317,25.8204 C 1130.8317,24.5689 1130.8889,23.303 1130.9462,22.0515 C 1130.7028,22.0952 1130.4736,22.1243 1130.2444,22.1243 C 1130.0154,22.1243 1129.7861,22.0952 1129.5427,22.0515 C 1129.6,23.303 1129.6573,24.5689 1129.6573,25.8204" id="path323" style="fill:#263f6e;fill-opacity:1;fill-rule:nonzero;stroke:none"/>
            <path d="M 1136.5031,23.9869 C 1136.8181,23.303 1137.5342,22.4734 1138.7659,22.4734 C 1140.0404,22.4734 1140.8137,23.4195 1140.8137,24.5836 C 1140.8137,27.2611 1136.3025,26.1115 1136.3025,29.5311 C 1136.3025,31.1463 1137.5055,32.2814 1139.4103,32.2814 C 1140.3125,32.2814 1140.9569,32.0632 1141.5298,31.5974 C 1141.3579,31.2628 1141.2577,30.9281 1141.1431,30.3751 L 1140.9712,30.3751 C 1140.7709,30.9135 1140.3412,31.743 1139.2671,31.743 C 1138.1929,31.743 1137.4196,31.0008 1137.4196,29.9386 C 1137.4196,27.2174 1141.9308,28.3525 1141.9308,25.1364 C 1141.9308,23.3612 1140.6276,21.8624 1138.4221,21.8624 C 1137.2334,21.8624 1136.5603,22.2843 1136.0591,22.6918 C 1136.231,23.1429 1136.2739,23.4339 1136.3312,23.9869" id="path325" style="fill:#263f6e;fill-opacity:1;fill-rule:nonzero;stroke:none"/>
            <path d="M 1141.5962,11.9809 L 1141.8882,12.6332 L 1142.384,12.6332 L 1142.093,11.9809 L 1141.5962,11.9809 z M 1096.4304,17.0855 L 1095.8745,16.3504 L 1095.3787,16.3504 L 1095.6696,17.0855 L 1096.4304,17.0855 z M 1094.6799,12.8759 L 1094.6799,15.9524 L 1096.5354,15.9524 L 1096.5354,15.4333 L 1095.3573,15.4333 L 1095.3573,14.7244 L 1096.2556,14.7244 L 1096.2556,14.2053 L 1095.3573,14.2053 L 1095.3573,13.395 L 1096.5845,13.395 L 1096.5845,12.8759" id="path327" style="fill:#263f6e;fill-opacity:1;fill-rule:nonzero;stroke:none"/>
            <path d="M 1099.2352,15.9524 L 1099.2352,15.4333 L 1098.4448,15.4333 L 1098.4448,12.8759 L 1097.7675,12.8759 L 1097.7675,15.4333 L 1096.9772,15.4333 L 1096.9772,15.9524" id="path329" style="fill:#263f6e;fill-opacity:1;fill-rule:nonzero;stroke:none"/>
            <path d="M 1100.2312,14.045 L 1100.9037,14.045 L 1100.5747,15.2898 L 1100.5649,15.2898 L 1100.2312,14.045 z M 1099.2642,12.8759 L 1100.1428,15.9524 L 1101.0116,15.9524 L 1101.8657,12.8759 L 1101.2178,12.8759 L 1101.046,13.5257 L 1100.1084,13.5257 L 1099.917,12.8759" id="path331" style="fill:#263f6e;fill-opacity:1;fill-rule:nonzero;stroke:none"/>
            <path d="M 1102.9604,13.3612 L 1103.2451,13.3612 C 1103.5985,13.3612 1103.785,13.5427 1103.785,13.8086 C 1103.785,14.104 1103.5494,14.2475 1103.196,14.2475 L 1102.9604,14.2475 L 1102.9604,13.3612 z M 1102.9604,14.7327 L 1103.196,14.7327 C 1103.5004,14.7327 1103.7017,14.8889 1103.7017,15.0957 C 1103.7017,15.3236 1103.5494,15.467 1103.2303,15.467 L 1102.9604,15.467 L 1102.9604,14.7327 z M 1102.2831,15.9524 L 1103.2354,15.9524 C 1103.9618,15.9524 1104.379,15.6908 1104.379,15.159 C 1104.379,14.8932 1104.2269,14.6695 1103.9421,14.5218 C 1104.3153,14.315 1104.4625,14.1462 1104.4625,13.7621 C 1104.4625,13.1544 1103.9913,12.8759 1103.2747,12.8759 L 1102.2831,12.8759" id="path333" style="fill:#263f6e;fill-opacity:1;fill-rule:nonzero;stroke:none"/>
            <path d="M 1105.1719,12.8759 L 1105.1719,15.9524 L 1105.8492,15.9524 L 1105.8492,13.395 L 1106.939,13.395 L 1106.939,12.8759" id="path335" style="fill:#263f6e;fill-opacity:1;fill-rule:nonzero;stroke:none"/>
            <path d="M 1107.6604,12.8759 L 1108.3379,12.8759 L 1108.3379,15.9524 L 1107.6604,15.9524 L 1107.6604,12.8759 z" id="path337" style="fill:#263f6e;fill-opacity:1;fill-rule:nonzero;stroke:none"/>
            <path d="M 1110.4216,15.0957 C 1110.3087,15.3869 1110.1614,15.5093 1109.9258,15.5093 C 1109.6853,15.5093 1109.5527,15.3827 1109.5527,15.1717 C 1109.5527,14.7075 1111.0646,14.6737 1111.0646,13.7114 C 1111.0646,13.1839 1110.6475,12.8338 1109.9357,12.8338 C 1109.3859,12.8338 1108.9589,13.0953 1108.7772,13.6989 L 1109.4447,13.8212 C 1109.5233,13.4499 1109.7687,13.319 1109.97,13.319 C 1110.2057,13.319 1110.3873,13.4541 1110.3873,13.6863 C 1110.3873,14.2643 1108.8754,14.2728 1108.8754,15.1337 C 1108.8754,15.6654 1109.2386,15.9946 1109.9406,15.9946 C 1110.5443,15.9946 1110.9125,15.6866 1111.0303,15.2519" id="path339" style="fill:#263f6e;fill-opacity:1;fill-rule:nonzero;stroke:none"/>
            <path d="M 1112.9791,15.0957 C 1112.8663,15.3869 1112.7191,15.5093 1112.4834,15.5093 C 1112.2429,15.5093 1112.1104,15.3827 1112.1104,15.1717 C 1112.1104,14.7075 1113.6222,14.6737 1113.6222,13.7114 C 1113.6222,13.1839 1113.205,12.8338 1112.4932,12.8338 C 1111.9434,12.8338 1111.5164,13.0953 1111.3347,13.6989 L 1112.0023,13.8212 C 1112.0808,13.4499 1112.3264,13.319 1112.5276,13.319 C 1112.7632,13.319 1112.9448,13.4541 1112.9448,13.6863 C 1112.9448,14.2643 1111.4329,14.2728 1111.4329,15.1337 C 1111.4329,15.6654 1111.7963,15.9946 1112.4982,15.9946 C 1113.1019,15.9946 1113.47,15.6866 1113.5879,15.2519" id="path341" style="fill:#263f6e;fill-opacity:1;fill-rule:nonzero;stroke:none"/>
            <path d="M 1114.2605,12.8759 L 1114.2605,15.9524 L 1116.116,15.9524 L 1116.116,15.4333 L 1114.9377,15.4333 L 1114.9377,14.7244 L 1115.8361,14.7244 L 1115.8361,14.2053 L 1114.9377,14.2053 L 1114.9377,13.395 L 1116.165,13.395 L 1116.165,12.8759" id="path343" style="fill:#263f6e;fill-opacity:1;fill-rule:nonzero;stroke:none"/>
            <path d="M 1116.8037,12.8759 L 1116.8037,15.9524 L 1117.6849,15.9524 L 1118.2557,14.2254 L 1118.265,14.2254 L 1118.8357,15.9524 L 1119.717,15.9524 L 1119.717,12.8759 L 1119.1781,12.8759 L 1119.1781,15.2982 L 1119.1691,15.2982 L 1118.4978,13.5016 L 1118.0229,13.5016 L 1117.3517,15.2982 L 1117.3425,15.2982 L 1117.3425,12.8759" id="path345" style="fill:#263f6e;fill-opacity:1;fill-rule:nonzero;stroke:none"/>
            <path d="M 1120.5216,12.8759 L 1120.5216,15.9524 L 1122.3772,15.9524 L 1122.3772,15.4333 L 1121.199,15.4333 L 1121.199,14.7244 L 1122.0973,14.7244 L 1122.0973,14.2053 L 1121.199,14.2053 L 1121.199,13.395 L 1122.4261,13.395 L 1122.4261,12.8759" id="path347" style="fill:#263f6e;fill-opacity:1;fill-rule:nonzero;stroke:none"/>
            <path d="M 1123.0643,12.8759 L 1123.0643,15.9524 L 1123.8055,15.9524 L 1124.748,14.1293 L 1124.7578,14.1293 L 1124.7578,15.9524 L 1125.3765,15.9524 L 1125.3765,12.8759 L 1124.7284,12.8759 L 1123.6927,14.8637 L 1123.6829,14.8637 L 1123.6829,12.8759" id="path349" style="fill:#263f6e;fill-opacity:1;fill-rule:nonzero;stroke:none"/>
            <path d="M 1128.2356,15.9524 L 1128.2356,15.4333 L 1127.4453,15.4333 L 1127.4453,12.8759 L 1126.7679,12.8759 L 1126.7679,15.4333 L 1125.9775,15.4333 L 1125.9775,15.9524" id="path351" style="fill:#263f6e;fill-opacity:1;fill-rule:nonzero;stroke:none"/>
            <path d="M 1129.6104,12.8759 L 1129.6104,15.9524 L 1131.6719,15.9524 L 1131.6719,15.4333 L 1130.2877,15.4333 L 1130.2877,14.7244 L 1131.4363,14.7244 L 1131.4363,14.2053 L 1130.2877,14.2053 L 1130.2877,12.8759" id="path353" style="fill:#263f6e;fill-opacity:1;fill-rule:nonzero;stroke:none"/>
            <path d="M 1132.9088,14.6146 L 1133.2572,14.6146 C 1133.5568,14.6146 1133.7383,14.7411 1133.7383,15.0409 C 1133.7383,15.3405 1133.5568,15.467 1133.2572,15.467 L 1132.9088,15.467 L 1132.9088,14.6146 z M 1133.8218,12.8759 L 1133.2328,14.1293 L 1132.9088,14.1293 L 1132.9088,12.8759 L 1132.2313,12.8759 L 1132.2313,15.9524 L 1133.213,15.9524 C 1134.028,15.9524 1134.4156,15.6105 1134.4156,15.0324 C 1134.4156,14.6483 1134.2587,14.3741 1133.8807,14.2475 L 1134.5483,12.8759" id="path355" style="fill:#263f6e;fill-opacity:1;fill-rule:nonzero;stroke:none"/>
            <path d="M 1135.7974,14.045 L 1136.47,14.045 L 1136.141,15.2898 L 1136.1312,15.2898 L 1135.7974,14.045 z M 1134.8304,12.8759 L 1135.7091,15.9524 L 1136.5779,15.9524 L 1137.4321,12.8759 L 1136.7842,12.8759 L 1136.6123,13.5257 L 1135.6748,13.5257 L 1135.4832,12.8759" id="path357" style="fill:#263f6e;fill-opacity:1;fill-rule:nonzero;stroke:none"/>
            <path d="M 1137.8763,12.8759 L 1137.8763,15.9524 L 1138.6176,15.9524 L 1139.5601,14.1293 L 1139.5699,14.1293 L 1139.5699,15.9524 L 1140.1885,15.9524 L 1140.1885,12.8759 L 1139.5404,12.8759 L 1138.5048,14.8637 L 1138.4949,14.8637 L 1138.4949,12.8759" id="path359" style="fill:#263f6e;fill-opacity:1;fill-rule:nonzero;stroke:none"/>
            <path d="M 1141.5284,13.7875 C 1141.5284,13.4456 1141.7002,13.3527 1141.9701,13.3527 C 1142.2401,13.3527 1142.4119,13.4456 1142.4119,13.7875 L 1142.4119,13.9943 L 1143.0894,13.9943 L 1143.0894,13.8635 C 1143.0894,13.108 1142.6278,12.8338 1141.9701,12.8338 C 1141.3124,12.8338 1140.851,13.108 1140.851,13.8635 L 1140.851,14.9649 C 1140.851,15.7245 1141.3124,15.9946 1141.9701,15.9946 C 1142.6278,15.9946 1143.0894,15.7245 1143.0894,14.9649 L 1143.0894,14.9564 L 1142.4119,14.9564 L 1142.4119,15.0409 C 1142.4119,15.3827 1142.2401,15.4755 1141.9701,15.4755 C 1141.7002,15.4755 1141.5284,15.3827 1141.5284,15.0409" id="path361" style="fill:#263f6e;fill-opacity:1;fill-rule:nonzero;stroke:none"/>
            <path d="M 1144.3289,14.045 L 1145.0015,14.045 L 1144.6726,15.2898 L 1144.6627,15.2898 L 1144.3289,14.045 z M 1143.3621,12.8759 L 1144.2407,15.9524 L 1145.1095,15.9524 L 1145.9636,12.8759 L 1145.3157,12.8759 L 1145.1438,13.5257 L 1144.2063,13.5257 L 1144.0148,12.8759" id="path363" style="fill:#263f6e;fill-opacity:1;fill-rule:nonzero;stroke:none"/>
            <path d="M 1146.3342,12.8759 L 1147.0114,12.8759 L 1147.0114,15.9524 L 1146.3342,15.9524 L 1146.3342,12.8759 z" id="path365" style="fill:#263f6e;fill-opacity:1;fill-rule:nonzero;stroke:none"/>
            <path d="M 1149.1199,15.0957 C 1149.0068,15.3869 1148.8596,15.5093 1148.6241,15.5093 C 1148.3835,15.5093 1148.2511,15.3827 1148.2511,15.1717 C 1148.2511,14.7075 1149.7629,14.6737 1149.7629,13.7114 C 1149.7629,13.1839 1149.3457,12.8338 1148.6339,12.8338 C 1148.0841,12.8338 1147.6571,13.0953 1147.4755,13.6989 L 1148.1429,13.8212 C 1148.2216,13.4499 1148.467,13.319 1148.6683,13.319 C 1148.9039,13.319 1149.0854,13.4541 1149.0854,13.6863 C 1149.0854,14.2643 1147.5737,14.2728 1147.5737,15.1337 C 1147.5737,15.6654 1147.9369,15.9946 1148.6388,15.9946 C 1149.2426,15.9946 1149.6107,15.6866 1149.7285,15.2519" id="path367" style="fill:#263f6e;fill-opacity:1;fill-rule:nonzero;stroke:none"/>
            <path d="M 1152.1365,13.395 L 1152.3721,13.395 C 1152.7452,13.395 1152.9612,13.5511 1152.9612,14.0112 L 1152.9612,14.8214 C 1152.9612,15.256 1152.7943,15.4333 1152.3721,15.4333 L 1152.1365,15.4333 L 1152.1365,13.395 z M 1151.4591,15.9524 L 1152.4016,15.9524 C 1153.1771,15.9524 1153.6091,15.6654 1153.6385,14.8889 L 1153.6385,13.9436 C 1153.6091,13.1671 1153.1771,12.8759 1152.4016,12.8759 L 1151.4591,12.8759" id="path369" style="fill:#263f6e;fill-opacity:1;fill-rule:nonzero;stroke:none"/>
            <path d="M 1154.9418,15.9524 L 1154.9418,13.8001 C 1154.9418,13.5047 1155.089,13.3527 1155.418,13.3527 C 1155.7468,13.3527 1155.899,13.5047 1155.899,13.8001 L 1155.899,15.9524 L 1156.5764,15.9524 L 1156.5764,13.7959 C 1156.5764,13.1207 1156.115,12.8338 1155.418,12.8338 C 1154.7208,12.8338 1154.2644,13.1207 1154.2644,13.7959 L 1154.2644,15.9524" id="path371" style="fill:#263f6e;fill-opacity:1;fill-rule:nonzero;stroke:none"/>
            <path d="M 1159.6445,15.0957 C 1159.5315,15.3869 1159.3844,15.5093 1159.1488,15.5093 C 1158.9082,15.5093 1158.7758,15.3827 1158.7758,15.1717 C 1158.7758,14.7075 1160.2876,14.6737 1160.2876,13.7114 C 1160.2876,13.1839 1159.8704,12.8338 1159.1586,12.8338 C 1158.6088,12.8338 1158.1818,13.0953 1158,13.6989 L 1158.6676,13.8212 C 1158.7462,13.4499 1158.9917,13.319 1159.193,13.319 C 1159.4286,13.319 1159.6101,13.4541 1159.6101,13.6863 C 1159.6101,14.2643 1158.0983,14.2728 1158.0983,15.1337 C 1158.0983,15.6654 1158.4615,15.9946 1159.1636,15.9946 C 1159.7672,15.9946 1160.1354,15.6866 1160.2532,15.2519" id="path373" style="fill:#263f6e;fill-opacity:1;fill-rule:nonzero;stroke:none"/>
            <path d="M 1161.4779,14.045 L 1162.1504,14.045 L 1161.8215,15.2898 L 1161.8118,15.2898 L 1161.4779,14.045 z M 1160.511,12.8759 L 1161.3896,15.9524 L 1162.2585,15.9524 L 1163.1125,12.8759 L 1162.4646,12.8759 L 1162.2927,13.5257 L 1161.3552,13.5257 L 1161.1638,12.8759" id="path375" style="fill:#263f6e;fill-opacity:1;fill-rule:nonzero;stroke:none"/>
            <path d="M 1163.6451,12.8759 L 1163.6451,15.9524 L 1164.3864,15.9524 L 1165.3289,14.1293 L 1165.3386,14.1293 L 1165.3386,15.9524 L 1165.9573,15.9524 L 1165.9573,12.8759 L 1165.3092,12.8759 L 1164.2736,14.8637 L 1164.2637,14.8637 L 1164.2637,12.8759" id="path377" style="fill:#263f6e;fill-opacity:1;fill-rule:nonzero;stroke:none"/>
            <path d="M 1167.7039,12.8364 C 1167.1045,12.8661 1166.6935,13.1503 1166.6935,13.8635 L 1166.6935,14.9649 C 1166.6935,15.7245 1167.1548,15.9946 1167.8125,15.9946 C 1168.5048,15.9946 1168.8778,15.6527 1168.9023,14.9522 L 1168.225,14.9522 C 1168.225,15.3489 1168.0581,15.4755 1167.8125,15.4755 C 1167.5426,15.4755 1167.3708,15.3827 1167.3708,15.0409 L 1167.3708,13.7875 C 1167.3708,13.4456 1167.5426,13.3527 1167.8125,13.3527 C 1168.0679,13.3527 1168.225,13.5174 1168.225,13.779 L 1168.225,13.9689 L 1167.7488,13.9689 L 1167.7488,14.5832 L 1168.9023,14.5832 C 1168.9023,14.2526 1168.9023,14.1053 1168.9023,13.8845 C 1168.9023,13.6637 1168.8796,12.8364 1167.7039,12.8364" id="path379" style="fill:#263f6e;fill-opacity:1;fill-rule:nonzero;stroke:none"/>
            <path d="M 1094.621,10.9037 L 1168.8835,10.9037 L 1168.8835,11.3453 L 1094.621,11.3453 L 1094.621,10.9037 z" id="path381" style="fill:#ed1c24;fill-opacity:1;fill-rule:nonzero;stroke:none"/>
          </g>
        </g>
      </g>
    </g>
  </g>
</svg>